<?xml version="1.0" standalone="no"?>
<!DOCTYPE svg PUBLIC "-//W3C//DTD SVG 20010904//EN"
 "http://www.w3.org/TR/2001/REC-SVG-20010904/DTD/svg10.dtd">
<svg version="1.0" xmlns="http://www.w3.org/2000/svg"
 width="563.000000pt" height="543.000000pt" viewBox="0 0 563.000000 543.000000"
 preserveAspectRatio="xMidYMid meet">

<g transform="translate(0.000000,543.000000) scale(0.100000,-0.100000)"
fill="#000000" stroke="none">
<path d="M1780 5418 c-156 -22 -335 -105 -437 -201 l-53 -50 0 45 c0 25 7 67
15 94 8 27 15 50 15 52 0 2 -21 -12 -46 -30 -101 -72 -235 -240 -306 -383 -34
-67 -78 -197 -78 -229 0 -13 -4 -27 -9 -31 -14 -8 -31 57 -38 143 -6 68 -7 72
-23 57 -25 -22 -66 -119 -92 -212 -29 -104 -31 -360 -5 -468 37 -147 95 -266
177 -355 29 -32 31 -33 25 -10 -17 68 -17 238 -1 320 17 81 66 224 74 215 2
-2 19 -40 37 -84 43 -108 88 -181 162 -261 54 -59 165 -144 230 -179 l23 -12
-6 118 c-5 89 -2 144 12 223 9 58 17 124 16 148 -5 218 -4 228 16 292 38 119
121 218 222 268 50 24 66 27 165 27 132 0 176 -16 258 -94 92 -87 137 -209
137 -371 0 -136 -33 -259 -96 -361 l-23 -37 36 -43 c100 -121 430 -429 441
-413 118 169 176 276 235 434 153 410 76 829 -207 1118 -212 217 -540 318
-876 270z"/>
<path d="M1598 4390 c-72 -150 -96 -409 -53 -565 11 -39 22 -55 47 -70 60 -35
183 -169 217 -235 40 -81 40 -107 -1 -46 -47 71 -129 134 -336 257 -281 166
-374 243 -434 356 -13 24 -26 43 -29 43 -9 0 -19 -67 -19 -135 0 -69 20 -157
50 -216 l21 -40 -23 6 c-13 2 -43 9 -68 15 -25 5 -108 13 -185 16 l-140 7 60
-45 c110 -82 194 -193 195 -257 0 -41 -75 -100 -240 -190 -160 -87 -293 -170
-345 -216 l-30 -26 40 5 c240 35 371 2 427 -107 34 -67 26 -218 -19 -334 -4
-9 22 7 56 35 143 119 351 239 504 290 49 17 84 33 78 36 -6 4 -58 14 -116 24
-58 9 -105 20 -105 24 0 18 106 95 185 134 128 62 224 85 383 91 82 4 137 2
143 -4 7 -7 -14 -12 -59 -16 -119 -11 -320 -79 -386 -130 -18 -13 -13 -16 75
-36 52 -12 107 -28 123 -35 l30 -12 -59 -33 c-76 -43 -165 -128 -219 -211 -41
-61 -64 -110 -52 -110 3 0 22 9 43 20 96 49 260 47 363 -5 100 -51 159 -159
147 -271 -8 -74 -52 -167 -100 -211 l-40 -36 84 6 c46 3 95 9 107 13 l24 7
-17 -33 c-21 -41 -91 -117 -130 -142 l-30 -20 59 6 c160 17 356 131 413 240
l15 29 -45 -7 c-67 -10 -114 12 -122 58 -7 35 7 145 25 191 l9 24 -36 -25
c-43 -29 -57 -30 -83 -4 -28 28 -26 107 6 195 13 39 27 77 30 87 7 19 -14 25
-151 43 l-90 11 75 18 c209 49 457 59 536 20 35 -17 39 -23 42 -62 2 -30 -5
-60 -22 -99 -31 -67 -32 -73 -6 -68 38 7 199 -15 252 -35 98 -36 142 -105 136
-211 l-4 -68 29 17 c80 47 184 191 227 317 25 73 44 206 36 251 l-7 36 -28
-44 c-23 -37 -109 -108 -130 -108 -3 0 -13 21 -21 48 -12 37 -24 53 -60 77
l-45 30 -1 90 c-1 75 -6 103 -31 166 -61 155 -107 209 -484 574 -225 217 -306
346 -333 529 l-12 80 -21 -50 c-41 -95 -55 -247 -32 -340 10 -39 28 -60 148
-172 274 -255 370 -363 437 -494 37 -73 28 -77 -18 -8 -57 85 -130 163 -283
299 -401 356 -503 496 -539 736 l-12 80 -26 -55z m708 -1161 c55 -37 108 -98
139 -159 l25 -50 -30 0 c-39 0 -97 29 -132 67 -25 26 -67 108 -83 161 -6 22
-5 23 17 17 12 -4 41 -20 64 -36z"/>
<path d="M4435 3573 c-96 -24 -223 -100 -375 -227 -109 -90 -165 -126 -199
-126 -44 0 -32 66 27 153 15 23 32 48 37 56 17 29 -143 -91 -216 -161 -89 -86
-160 -171 -229 -273 -51 -75 -132 -230 -145 -275 -3 -14 -9 -32 -11 -41 -2 -8
40 28 94 80 254 249 618 419 955 446 112 9 114 -7 3 -22 -301 -41 -661 -248
-971 -558 -145 -144 -331 -368 -314 -378 2 -1 29 -14 59 -30 30 -15 113 -75
184 -134 89 -73 131 -102 135 -92 13 42 176 348 231 437 95 152 238 339 313
409 117 109 256 169 419 180 125 8 257 -22 338 -78 23 -15 27 -16 45 -2 46 35
190 95 296 122 184 47 385 61 498 34 36 -9 -91 104 -193 171 -147 97 -279 153
-433 182 -122 23 -287 15 -403 -20 -181 -55 -210 -61 -228 -50 -46 29 -4 98
103 166 55 35 58 38 30 37 -16 -1 -39 -4 -50 -6z"/>
<path d="M564 2843 c-158 -174 -275 -336 -379 -523 -50 -91 -97 -197 -109
-244 -7 -28 -6 -28 46 17 54 46 175 127 189 127 4 0 -3 -25 -17 -56 -84 -191
-126 -477 -104 -714 22 -238 71 -422 165 -615 65 -134 210 -333 229 -314 2 2
0 46 -6 97 -14 127 -7 138 42 65 51 -77 195 -214 289 -277 157 -104 321 -174
501 -213 128 -27 428 -25 567 5 444 96 798 369 1068 824 103 172 130 230 113
242 -8 6 -74 63 -148 126 -136 117 -275 231 -297 243 -7 5 -32 -25 -69 -80
-120 -185 -260 -330 -417 -434 -145 -95 -282 -136 -417 -124 -142 12 -262 68
-365 169 -75 74 -126 160 -168 281 -31 87 -32 96 -32 260 0 150 3 180 24 255
61 214 168 400 334 580 41 46 55 66 47 74 -7 7 -53 11 -114 11 -98 0 -105 -2
-177 -37 -42 -21 -97 -56 -123 -79 -26 -23 -49 -39 -52 -37 -7 8 14 136 33
193 19 60 59 143 81 168 27 30 -8 21 -110 -32 -168 -85 -365 -222 -492 -341
l-69 -65 6 90 c4 50 18 149 32 220 27 134 28 197 2 222 -12 13 -26 2 -103 -84z"/>
<path d="M2171 2735 c-8 -18 -11 -56 -8 -97 6 -94 37 -141 150 -232 149 -119
162 -140 177 -280 18 -175 68 -257 242 -397 220 -178 455 -379 501 -428 93
-100 122 -210 108 -411 -19 -265 13 -390 131 -525 44 -50 132 -114 192 -139
53 -22 63 -20 39 7 -81 88 -107 283 -53 404 23 52 61 113 71 113 4 0 12 -30
19 -67 52 -285 262 -514 534 -583 274 -69 652 35 832 229 32 34 30 42 -7 29
-18 -6 -74 -9 -137 -6 -121 5 -214 33 -309 90 l-54 33 138 6 c113 5 153 11
218 33 218 74 385 228 453 420 34 94 42 251 17 345 -77 297 -374 513 -702 510
l-78 0 51 -20 c71 -27 166 -116 201 -187 37 -76 39 -192 4 -263 -47 -99 -158
-179 -296 -214 -58 -15 -255 -21 -255 -9 0 4 16 25 36 47 118 130 132 355 34
547 -23 45 -101 135 -132 151 -16 9 -17 5 -12 -48 17 -159 -100 -297 -250
-297 -96 1 -149 30 -346 193 -372 308 -515 424 -545 443 -48 29 -121 47 -239
56 -104 9 -111 11 -136 39 -18 19 -31 51 -39 94 -25 127 -46 165 -102 195 -17
8 -83 22 -147 30 -181 22 -262 72 -281 175 l-8 44 -12 -30z"/>
</g>
</svg>
